<?xml version="1.0" encoding="utf-8"?>
<!-- Generator: Adobe Illustrator 23.0.1, SVG Export Plug-In . SVG Version: 6.00 Build 0)  -->
<svg version="1.1" id="Слой_1" xmlns="http://www.w3.org/2000/svg" xmlns:xlink="http://www.w3.org/1999/xlink" x="0px" y="0px"
	 viewBox="0 0 1366 768" style="enable-background:new 0 0 1366 768;" xml:space="preserve">
<style type="text/css">
	.st0{fill:#FFFFFF;}
	.st1{fill:#A4C2F7;}
	.st2{fill:url(#SVGID_1_);}
	.st3{fill:#428DFF;}
	.st4{fill:#FF914B;}
	.st5{fill:#E67332;}
	.st6{fill:#464655;}
</style>
<g>
	<path class="st0" d="M137.07,62.51c-24.49,0-44.35,18.61-44.35,41.57c0,0.8,0.08,1.57,0.13,2.36c-0.05,0.95-0.13,1.91-0.13,2.84
		c-23.36,11.13-38.27,33.41-38.81,57.97c0.11,33.95,29.44,61.46,65.67,61.56h28.58l13.44-159.35
		C154.33,64.92,145.8,62.5,137.07,62.51z"/>
	<path class="st1" d="M325.11,114.48c-0.5-45.56-39.65-82.45-88.25-83.15l54.97,197.48h22.02c33.73-0.09,61.04-25.7,61.14-57.31
		C374.93,143.79,354.08,119.96,325.11,114.48z"/>
	
		<linearGradient id="SVGID_1_" gradientUnits="userSpaceOnUse" x1="570.9189" y1="-246.7507" x2="571.313" y2="-246.2113" gradientTransform="matrix(443.7334 0 0 324.2667 -253209.375 80086.4688)">
		<stop  offset="0" style="stop-color:#D4E1F4"/>
		<stop  offset="0.1717" style="stop-color:#D4E1F4"/>
		<stop  offset="0.2" style="stop-color:#D4E1F4"/>
		<stop  offset="0.2001" style="stop-color:#DAE4F4"/>
		<stop  offset="0.2007" style="stop-color:#EBEBF4"/>
		<stop  offset="0.2014" style="stop-color:#F6F1F4"/>
		<stop  offset="0.2023" style="stop-color:#FDF4F4"/>
		<stop  offset="0.205" style="stop-color:#FFF5F4"/>
		<stop  offset="0.2522" style="stop-color:#FFF5F4"/>
		<stop  offset="0.26" style="stop-color:#FFF5F4"/>
		<stop  offset="0.26" style="stop-color:#D4E1F4"/>
		<stop  offset="0.3974" style="stop-color:#D4E1F4"/>
		<stop  offset="0.42" style="stop-color:#D4E1F4"/>
		<stop  offset="0.4201" style="stop-color:#DAE4F4"/>
		<stop  offset="0.4207" style="stop-color:#EBEBF4"/>
		<stop  offset="0.4214" style="stop-color:#F6F1F4"/>
		<stop  offset="0.4223" style="stop-color:#FDF4F4"/>
		<stop  offset="0.425" style="stop-color:#FFF5F4"/>
		<stop  offset="0.4894" style="stop-color:#FFF5F4"/>
		<stop  offset="0.5" style="stop-color:#FFF5F4"/>
		<stop  offset="0.5" style="stop-color:#F9F2F4"/>
		<stop  offset="0.5001" style="stop-color:#E8EBF4"/>
		<stop  offset="0.5003" style="stop-color:#DDE5F4"/>
		<stop  offset="0.5005" style="stop-color:#D6E2F4"/>
		<stop  offset="0.501" style="stop-color:#D4E1F4"/>
		<stop  offset="0.7062" style="stop-color:#D4E1F4"/>
		<stop  offset="0.74" style="stop-color:#D4E1F4"/>
		<stop  offset="0.741" style="stop-color:#FFF5F4"/>
		<stop  offset="0.8346" style="stop-color:#FFF5F4"/>
		<stop  offset="0.85" style="stop-color:#FFF5F4"/>
		<stop  offset="0.851" style="stop-color:#D4E1F4"/>
	</linearGradient>
	<path class="st2" d="M308.95,114.48c-0.5-45.56-39.65-82.45-88.25-83.15c-30.82,0-34.39,8.67-50.36,31.18
		c-7.03-4.38-7.56,0-16.63,0c-24.49,0-44.35,18.61-44.35,41.57c0,0.8,0.08,1.57,0.13,2.36c-0.05,0.95-0.13,1.91-0.13,2.84
		c-23.36,11.13-38.27,33.41-38.81,57.97c0.11,33.95,29.44,61.46,65.67,61.56h161.48c33.73-0.09,61.04-25.7,61.14-57.31
		C358.76,143.79,337.91,119.96,308.95,114.48L308.95,114.48z"/>
	<g>
		<path class="st3" d="M297.84,119.67c-2.9,0-5.3-2.1-5.52-4.81c-0.22-2.71,1.83-5.12,4.69-5.53c9.75-1.21,19.63-1.21,29.38-0.01
			c3.01,0.44,5.08,3.07,4.64,5.89c-0.45,2.83-3.24,4.78-6.26,4.39c-8.66-1.04-17.43-1.05-26.09-0.01
			C298.4,119.65,298.12,119.67,297.84,119.67L297.84,119.67z"/>
		<path class="st3" d="M181.42,109.28c-1.47,0-2.88-0.55-3.92-1.52c-1.04-0.97-1.62-2.3-1.62-3.68c0-20.09-17.37-36.38-38.81-36.38
			s-38.81,16.29-38.81,36.38c0,2.87-2.48,5.2-5.54,5.2c-3.06,0-5.54-2.33-5.54-5.2c0-25.83,22.34-46.77,49.89-46.77
			s49.89,20.94,49.89,46.77c0,1.38-0.58,2.7-1.62,3.68C184.3,108.73,182.89,109.28,181.42,109.28z"/>
		<path class="st3" d="M314.32,234h-54.35c-0.58,0-1.15-0.03-1.72-0.07l-0.74-0.04l-0.34,0.04c-0.57,0.04-1.14,0.07-1.72,0.07
			H119.58c-39.31-0.04-71.17-29.91-71.21-66.76c0.52-25.4,15.3-48.67,38.89-61.18v-0.02c-0.04-0.65-0.09-1.3-0.09-1.96
			c0-16.33,9.08-31.47,23.97-39.96s33.41-9.08,48.87-1.57c18.32-22.76,46.9-36.22,77.32-36.42c49.98,0.57,90.93,37.37,93.64,84.16
			c29.4,7.62,49.82,32.61,50.03,61.2C380.96,206,351.13,233.96,314.32,234z M257.51,223.5l1.5,0.06c0.32,0.02,0.64,0.05,0.96,0.05
			h54.35c30.69-0.03,55.56-23.35,55.6-52.11c-0.13-25.18-19.05-46.83-45.36-51.91c-2.59-0.46-4.48-2.56-4.52-5.03
			c-0.34-42.77-37.09-77.44-82.71-78.02c-28.51,0.38-55.04,13.73-71.12,35.8c-0.81,1.15-2.08,1.95-3.52,2.22
			c-1.44,0.27-2.94,0-4.16-0.77c-11.91-7.42-27.21-8.09-39.81-1.76c-12.6,6.34-20.46,18.65-20.46,32.06c0,0.43,0.03,0.85,0.06,1.27
			l0.05,0.82c0.01,0.18,0.01,0.37,0,0.54l-0.04,0.56c-0.04,0.67-0.08,1.34-0.08,2c0,2-1.22,3.82-3.15,4.68
			c-21.37,10.33-35.03,30.75-35.66,53.28c0.04,31.11,26.93,56.32,60.12,56.36h135.87c0.32,0,0.64-0.03,0.96-0.05L257.51,223.5z"/>
	</g>
</g>
<path class="st4" d="M288.33,174.72c-1.88-5.88-2.78-11.97-2.78-18.08v-42.56c0-4.4-6.09-6.62-9.68-3.53
	c-5.94,5.12-15.55,13.43-23.05,19.97c-1.43,1.25-3.52,1.77-5.47,1.28c-15.42-3.86-56.14-3.79-71.56,0.02
	c-1.94,0.48-4.02-0.04-5.45-1.28c-7.51-6.55-17.12-14.86-23.07-19.99c-3.59-3.1-9.68-0.87-9.68,3.53v42.55
	c0,6.3-1.06,12.54-2.95,18.62c-2.51,8.1-3.39,16.78-2.26,25.78c4.03,32.05,33.72,57.84,70.57,61.21
	c47.87,4.37,88.29-28.17,88.29-68.94C291.24,186.86,290.22,180.63,288.33,174.72z"/>
<path class="st0" d="M229.22,209.13c-7.46-1.39-14.31,1.46-18.01,6.3c-3.69-4.84-10.55-7.69-18.01-6.3
	c-6.4,1.2-11.56,5.71-12.91,11.29c-2.32,9.61,6.05,18.07,16.68,18.07c4.75,0,9.05-1.69,12.14-4.42c1.17-1.03,3-1.03,4.17,0
	c3.09,2.73,7.39,4.42,12.14,4.42c10.64,0,19-8.46,16.68-18.07C240.78,214.84,235.62,210.33,229.22,209.13z"/>
<path class="st5" d="M216.53,223.16c-2.73,3.32-7.19,3.32-9.92,0l-4.3-5.24c-2.73-3.32-1.12-6.04,3.57-6.04h11.38
	c4.69,0,6.3,2.72,3.57,6.04L216.53,223.16z"/>
<path d="M211.57,228.13c-2.78,0-5.44-1.29-7.28-3.53l-4.3-5.24c-1.94-2.37-2.38-4.86-1.21-6.84c1.17-1.98,3.76-3.12,7.1-3.12h11.38
	c3.34,0,5.93,1.14,7.1,3.12c1.17,1.98,0.73,4.48-1.21,6.84l-4.3,5.24C217.01,226.84,214.35,228.13,211.57,228.13z M205.88,214.35
	c-1.47,0-2,0.36-2.04,0.43c-0.04,0.07-0.08,0.65,0.78,1.7l4.3,5.24c0.77,0.94,1.71,1.46,2.65,1.46c0.94,0,1.87-0.52,2.65-1.46l0,0
	l4.3-5.24c0.86-1.04,0.82-1.63,0.78-1.7c-0.04-0.07-0.57-0.43-2.04-0.43H205.88L205.88,214.35z"/>
<g>
	<path class="st5" d="M146.12,158.64c2.87-4.32,6.77-7.84,10.11-10.36c3.78-2.85,4.51-7.69,1.74-11.3l-17.54-22.9"/>
	<path class="st5" d="M277.01,158.64c-2.87-4.32-6.77-7.84-10.11-10.36c-3.78-2.85-4.51-7.69-1.74-11.3l17.54-22.9"/>
</g>
<g>
	<ellipse class="st6" cx="180.27" cy="193.3" rx="11.38" ry="9.9"/>
	<ellipse class="st6" cx="242.87" cy="193.3" rx="11.38" ry="9.9"/>
</g>
<g>
	<ellipse class="st5" cx="160.71" cy="218.06" rx="11.38" ry="9.9"/>
	<ellipse class="st5" cx="263.14" cy="218.06" rx="11.38" ry="9.9"/>
	<path class="st5" d="M229.35,129.54v19.81c0,2.73,2.55,4.95,5.69,4.95c3.14,0,5.69-2.22,5.69-4.95v-18.57
		C236.76,130.3,233.2,129.79,229.35,129.54z"/>
	<path class="st5" d="M212.28,128.92c-1.93,0-3.82,0.05-5.69,0.13v33.61c0,2.73,2.55,4.95,5.69,4.95c3.14,0,5.69-2.22,5.69-4.95
		v-33.61C216.1,128.98,214.21,128.92,212.28,128.92z"/>
	<path class="st5" d="M183.83,130.47v19.33c0,2.73,2.55,4.95,5.69,4.95c3.14,0,5.69-2.22,5.69-4.95v-20.26
		C191.27,129.54,187.34,130.05,183.83,130.47z"/>
</g>
<path d="M146.12,161.11c-0.48,0-0.97-0.11-1.42-0.33c-1.36-0.68-1.83-2.2-1.04-3.38c2.57-3.87,6.18-7.57,10.71-11
	c2.68-2.02,3.21-5.49,1.24-8.06l-17.54-22.9c-0.87-1.14-0.52-2.68,0.79-3.43c1.31-0.76,3.07-0.45,3.95,0.69l17.54,22.9
	c3.56,4.64,2.59,10.9-2.24,14.55c-4.06,3.06-7.26,6.34-9.51,9.73C148.06,160.67,147.1,161.11,146.12,161.11z"/>
<path d="M277.02,161.11c-0.98,0-1.94-0.44-2.47-1.24c-2.25-3.4-5.46-6.67-9.51-9.73c-4.84-3.65-5.8-9.91-2.24-14.55l17.54-22.9
	c0.87-1.14,2.64-1.45,3.95-0.69c1.31,0.76,1.66,2.3,0.79,3.43l-17.54,22.9c-1.97,2.57-1.44,6.04,1.24,8.06
	c4.54,3.42,8.14,7.12,10.71,11c0.79,1.18,0.32,2.7-1.04,3.38C277.99,161.01,277.5,161.11,277.02,161.11z"/>
<path d="M197.34,241.59c-6.88,0-13.05-3.56-15.73-9.07c-0.61-1.26,0.06-2.71,1.51-3.25c1.45-0.53,3.12,0.06,3.73,1.32
	c1.79,3.68,5.9,6.05,10.49,6.05c6.28,0,11.38-4.44,11.38-9.9c0-1.37,1.27-2.48,2.85-2.48c1.57,0,2.85,1.11,2.85,2.48
	C214.42,234.92,206.76,241.59,197.34,241.59z"/>
<path d="M225.8,241.59c-9.41,0-17.07-6.66-17.07-14.86c0-1.37,1.27-2.48,2.85-2.48c1.57,0,2.85,1.11,2.85,2.48
	c0,5.46,5.11,9.9,11.38,9.9c4.59,0,8.7-2.37,10.49-6.05c0.61-1.26,2.28-1.85,3.73-1.32c1.45,0.53,2.12,1.99,1.51,3.25
	C238.85,238.03,232.67,241.59,225.8,241.59z"/>
<path d="M211.57,250.25c-2.48,0-4.9-0.54-6.99-1.55c-1.37-0.67-1.86-2.18-1.09-3.37c0.77-1.19,2.5-1.62,3.87-0.95
	c1.24,0.6,2.7,0.92,4.21,0.92c1.51,0,2.97-0.32,4.21-0.92c1.37-0.67,3.1-0.24,3.87,0.95c0.77,1.19,0.28,2.7-1.09,3.37
	C216.47,249.72,214.05,250.25,211.57,250.25z"/>
<path d="M180.27,205.68c-7.85,0-14.23-5.55-14.23-12.38c0-6.83,6.38-12.38,14.23-12.38c7.85,0,14.23,5.55,14.23,12.38
	C194.5,200.13,188.11,205.68,180.27,205.68z M180.27,185.87c-4.71,0-8.54,3.33-8.54,7.43s3.83,7.43,8.54,7.43s8.54-3.33,8.54-7.43
	S184.98,185.87,180.27,185.87z"/>
<path d="M180.27,198.26c-1.57,0-2.85-1.11-2.85-2.48v-4.95c0-1.37,1.27-2.48,2.85-2.48c1.57,0,2.85,1.11,2.85,2.48v4.95
	C183.12,197.15,181.84,198.26,180.27,198.26z"/>
<path d="M242.87,205.68c-7.85,0-14.23-5.55-14.23-12.38c0-6.83,6.38-12.38,14.23-12.38s14.23,5.55,14.23,12.38
	C257.1,200.13,250.71,205.68,242.87,205.68z M242.87,185.87c-4.71,0-8.54,3.33-8.54,7.43s3.83,7.43,8.54,7.43s8.54-3.33,8.54-7.43
	S247.58,185.87,242.87,185.87z"/>
<path d="M242.87,198.26c-1.57,0-2.85-1.11-2.85-2.48v-4.95c0-1.37,1.27-2.48,2.85-2.48c1.57,0,2.85,1.11,2.85,2.48v4.95
	C245.72,197.15,244.44,198.26,242.87,198.26z"/>
<path d="M291.07,174.05L291.07,174.05c-1.77-5.54-2.67-11.4-2.67-17.41v-42.56c0-3.06-2.01-5.69-5.25-6.86
	c-3.23-1.17-6.79-0.57-9.28,1.58c-6.17,5.31-15.69,13.55-23.07,19.99c-0.72,0.63-1.75,0.88-2.66,0.65
	c-15.94-3.98-56.94-3.98-73.12,0.01c-0.92,0.23-1.94-0.02-2.66-0.65c-7.4-6.45-16.92-14.69-23.08-20c-2.49-2.15-6.05-2.75-9.28-1.58
	c-3.24,1.18-5.25,3.81-5.25,6.86v42.55c0,5.84-0.96,11.89-2.85,17.98c-2.69,8.67-3.48,17.65-2.34,26.69
	c4.18,33.25,34.92,59.92,73.1,63.4c3.01,0.27,6,0.41,8.97,0.41c8.92,0,17.66-1.23,26.1-3.69c10.78-3.13,20.56-8.1,29.05-14.75
	c17.36-13.6,27.32-33.06,27.32-53.38C294.09,186.78,293.07,180.31,291.07,174.05z M262.96,243c-16.39,12.84-37.59,18.8-59.72,16.78
	c-35.53-3.25-64.14-28.07-68.03-59.02c-1.06-8.43-0.33-16.79,2.18-24.86c2.02-6.51,3.04-12.99,3.04-19.27v-42.55
	c0-1.54,1.34-2.14,1.75-2.29c0.19-0.07,0.62-0.2,1.14-0.2c0.58,0,1.29,0.16,1.94,0.72c6.15,5.3,15.66,13.53,23.06,19.98
	c2.18,1.9,5.33,2.63,8.24,1.92c15.16-3.74,55.07-3.75,70-0.02c2.91,0.73,6.08,0,8.26-1.91c7.37-6.42,16.88-14.66,23.04-19.96
	c1.24-1.07,2.67-0.67,3.08-0.52c0.41,0.15,1.75,0.76,1.75,2.29v42.56c0,6.47,0.97,12.77,2.88,18.74c1.86,5.82,2.81,11.85,2.81,17.92
	C288.4,212.22,279.13,230.33,262.96,243z"/>
</svg>
